<svg xmlns="http://www.w3.org/2000/svg" width="128" height="73" viewBox="0 0 128 73">
  <g id="Group_59" data-name="Group 59" transform="translate(-371 -571)">
    <text id="h3" transform="translate(459 615)" fill="#020202" font-size="9" font-family="Montserrat-Medium, Montserrat" font-weight="500" letter-spacing="0.05em"><tspan x="-87.255" y="0">TOURGOAPP.COM</tspan></text>
    <text id="h3-2" data-name="h3" transform="translate(499 599)" fill="#020202" font-size="9" font-family="Montserrat-Medium, Montserrat" font-weight="500" letter-spacing="0.05em"><tspan x="-127.332" y="0">EMAIL@TOURGOAPP.COM</tspan></text>
    <text id="h3-3" data-name="h3" transform="translate(478 584)" fill="#020202" font-size="13" font-family="Montserrat-Bold, Montserrat" font-weight="700" letter-spacing="0.05em"><tspan x="-105.638" y="0">TOURGO TEAM</tspan></text>
    <g id="Group_15" data-name="Group 15" transform="translate(-282.318 600)">
      <g id="fb_icon" transform="translate(654.318 25)">
        <g id="Ellipse_74" data-name="Ellipse 74" fill="none" stroke="#000" stroke-width="1">
          <circle cx="9.5" cy="9.5" r="9.5" stroke="none"/>
          <circle cx="9.5" cy="9.5" r="9" fill="none"/>
        </g>
        <g id="facebook" transform="translate(6.087 4.167)">
          <path id="Path_985" data-name="Path 985" d="M27.733,0l-1.41,0a2.476,2.476,0,0,0-2.607,2.675V3.909H22.3a.222.222,0,0,0-.222.222V5.918a.222.222,0,0,0,.222.222h1.417v4.51a.222.222,0,0,0,.222.222h1.849a.222.222,0,0,0,.222-.222V6.139h1.657a.222.222,0,0,0,.222-.222V4.13a.222.222,0,0,0-.222-.222H26.009V2.863c0-.5.12-.758.774-.758h.95a.222.222,0,0,0,.222-.222V.224A.222.222,0,0,0,27.733,0Z" transform="translate(-22.077)"/>
        </g>
      </g>
      <g id="twt_icon" transform="translate(681.123 25)">
        <g id="Ellipse_74-2" data-name="Ellipse 74" transform="translate(0.194)" fill="none" stroke="#000" stroke-width="1">
          <ellipse cx="10" cy="9.5" rx="10" ry="9.5" stroke="none"/>
          <ellipse cx="10" cy="9.5" rx="9.5" ry="9" fill="none"/>
        </g>
        <g id="instagram" transform="translate(4.671 4.384)">
          <path id="Path_992" data-name="Path 992" d="M10.8,3.051a3.791,3.791,0,0,0-.241-1.259A2.658,2.658,0,0,0,9.037.274,3.8,3.8,0,0,0,7.779.032C7.223.006,7.047,0,5.638,0S4.053.006,3.5.03A3.792,3.792,0,0,0,2.241.272a2.532,2.532,0,0,0-.92.6,2.555,2.555,0,0,0-.6.918A3.8,3.8,0,0,0,.482,3.048C.455,3.6.449,3.78.449,5.189S.455,6.774.48,7.327A3.791,3.791,0,0,0,.721,8.586,2.657,2.657,0,0,0,2.239,10.1a3.8,3.8,0,0,0,1.259.241c.553.024.73.03,2.138.03s1.585-.006,2.138-.03A3.79,3.79,0,0,0,9.033,10.1a2.654,2.654,0,0,0,1.518-1.518,3.8,3.8,0,0,0,.241-1.259c.024-.553.03-.73.03-2.138S10.821,3.6,10.8,3.051ZM9.862,7.287a2.844,2.844,0,0,1-.178.963,1.721,1.721,0,0,1-.985.985,2.854,2.854,0,0,1-.963.178c-.547.024-.711.03-2.1.03s-1.551-.006-2.1-.03a2.842,2.842,0,0,1-.963-.178,1.6,1.6,0,0,1-.6-.387,1.613,1.613,0,0,1-.387-.6,2.854,2.854,0,0,1-.178-.963c-.024-.547-.03-.711-.03-2.1s.006-1.551.03-2.1A2.842,2.842,0,0,1,1.6,2.134a1.577,1.577,0,0,1,.389-.6,1.611,1.611,0,0,1,.6-.387A2.856,2.856,0,0,1,3.546.973c.547-.024.711-.03,2.1-.03s1.551.006,2.1.03a2.844,2.844,0,0,1,.963.178,1.6,1.6,0,0,1,.6.387,1.613,1.613,0,0,1,.387.6,2.856,2.856,0,0,1,.178.963c.024.547.03.711.03,2.1S9.887,6.739,9.862,7.287Zm0,0" transform="translate(-0.449 0)"/>
          <path id="Path_993" data-name="Path 993" d="M127.615,124.5a2.665,2.665,0,1,0,2.665,2.665A2.666,2.666,0,0,0,127.615,124.5Zm0,4.394a1.729,1.729,0,1,1,1.729-1.729A1.729,1.729,0,0,1,127.615,128.894Zm0,0" transform="translate(-122.426 -121.976)"/>
          <path id="Path_994" data-name="Path 994" d="M363.694,89.224a.622.622,0,1,1-.622-.622A.622.622,0,0,1,363.694,89.224Zm0,0" transform="translate(-355.112 -86.806)"/>
        </g>
      </g>
    </g>
  </g>
</svg>
