<svg xmlns="http://www.w3.org/2000/svg" xmlns:xlink="http://www.w3.org/1999/xlink" width="153.69" height="153.69" viewBox="0 0 153.69 153.69">
  <defs>
    <linearGradient id="linear-gradient" x1="0.5" x2="1" y2="1" gradientUnits="objectBoundingBox">
      <stop offset="0" stop-color="#00609b"/>
      <stop offset="0.813" stop-color="#0c4572"/>
      <stop offset="1" stop-color="#103f69"/>
    </linearGradient>
    <filter id="orangeBg" x="0" y="0" width="153.69" height="153.69" filterUnits="userSpaceOnUse">
      <feOffset dx="3" dy="3" input="SourceAlpha"/>
      <feGaussianBlur stdDeviation="3" result="blur"/>
      <feFlood flood-opacity="0.161"/>
      <feComposite operator="in" in2="blur"/>
      <feComposite in="SourceGraphic"/>
    </filter>
  </defs>
  <g id="submit" transform="matrix(0.966, 0.259, -0.259, 0.966, -151.03, -1790.38)">
    <g transform="matrix(0.97, -0.26, 0.26, 0.97, 609.27, 1690.28)" filter="url(#orangeBg)">
      <path id="orangeBg-2" data-name="orangeBg" d="M7,0h96.791a7,7,0,0,1,7,7V92.684L91,110.791H7a7,7,0,0,1-7-7V7A7,7,0,0,1,7,0Z" transform="matrix(0.97, 0.26, -0.26, 0.97, 34.67, 6)" fill="url(#linear-gradient)"/>
    </g>
    <text id="p" transform="translate(699.314 1703.568)" fill="#fff" font-size="10" font-family="Montserrat-Medium, Montserrat" font-weight="500" letter-spacing="0.05em"><tspan x="-23.69" y="0">LONDON</tspan></text>
    <text id="_9_million_people_1_569km2_606_sq_mi_3_Olympic_Games_170_Museums_270_Tube_stations_500_TOURGO_Challenges" data-name="9 million people
1,569km2   (606 sq mi)
3 Olympic Games
170 Museums
270 Tube stations
500 TOURGO 
Challenges" transform="translate(648.314 1711.067)" fill="#fff" font-size="8" font-family="Montserrat-Light, Montserrat" font-weight="300" letter-spacing="0.1em"><tspan x="13.053" y="8">9 million people</tspan><tspan x="1.533" y="19">1,569km</tspan><tspan y="19" xml:space="preserve" font-size="4.666" baseline-shift="2.66639997471509">2   </tspan><tspan y="19">(606 sq mi)</tspan><tspan x="10.713" y="30">3 Olympic Games</tspan><tspan x="20.313" y="41">170 Museums</tspan><tspan x="10.289" y="52">270 Tube stations</tspan><tspan font-family="Montserrat-Bold, Montserrat" font-weight="700"><tspan x="20.785" y="63">500 TOURGO </tspan><tspan x="19.805" y="74">CHALLENGES</tspan></tspan></text>
    <path id="orangeBg-3" data-name="orangeBg" d="M7,0,19.747.09l-19.8,18.1L0,7A7,7,0,0,1,7,0Z" transform="translate(735.38 1779.691)" fill="url(#linear-gradient)"/>
  </g>
</svg>
