<svg xmlns="http://www.w3.org/2000/svg" xmlns:xlink="http://www.w3.org/1999/xlink" width="148.071" height="126.554" viewBox="0 0 148.071 126.554">
  <defs>
    <linearGradient id="linear-gradient" x1="1" y1="0.5" x2="0" y2="0.5" gradientUnits="objectBoundingBox">
      <stop offset="0" stop-color="#ff512f"/>
      <stop offset="1" stop-color="#f09819"/>
    </linearGradient>
    <linearGradient id="linear-gradient-3" x1="1" y1="0.5" x2="0" y2="0.5" gradientUnits="objectBoundingBox">
      <stop offset="0" stop-color="#00609b"/>
      <stop offset="0.813" stop-color="#0c4572"/>
      <stop offset="1" stop-color="#103f69"/>
    </linearGradient>
  </defs>
  <g id="tourgoers_activities" transform="translate(0 0)">
    <g id="Group_55" data-name="Group 55" transform="translate(100.168 1.751)">
      <g id="Group_54" data-name="Group 54" transform="translate(0 0)">
        <path id="Path_240" data-name="Path 240" d="M233.877,880.775a15.011,15.011,0,0,1-3.552,1.257c-1.463.209-2.286-1.274-1.979-1.79s-.947-.1-1.783,1.79c0,0-3.552,4.19-5.642,4.4s-2.106,3.046-1.045,3.142c1.149.1,3.134.838,5.642,0s4.806-3.142,5.851-3.142,4.6-1.676,3.552-2.514S233.877,880.775,233.877,880.775Z" transform="translate(-191.649 -767.393)" fill="#3f3d56"/>
        <path id="Path_241" data-name="Path 241" d="M326.233,894.144a11.573,11.573,0,0,1-3.188-.2c-1.436-.35-1.651-2.033-1.175-2.4s-.844-.442-2.318,1c0,0-4.85,2.569-6.867,1.986s-3.083,2.044-2.134,2.529a12.082,12.082,0,0,0,5.234,1.481c2.638.155,5.631-.51,6.6-.122s4.889.155,4.229-1.012A6.493,6.493,0,0,1,326.233,894.144Z" transform="translate(-304.599 -776.029)" fill="#3f3d56"/>
        <ellipse id="Ellipse_44" data-name="Ellipse 44" cx="8.149" cy="8.17" rx="8.149" ry="8.17" transform="translate(17.037 1.845)" fill="#ffc1c7"/>
        <path id="Path_242" data-name="Path 242" d="M274.538,455.59s-1.254,8.8,1.672,10.056-14.836.838-14.836.838,2.507-7.961,1.881-10.056S274.538,455.59,274.538,455.59Z" transform="translate(-242.979 -442.328)" fill="#ffc1c7"/>
        <path id="Path_243" data-name="Path 243" d="M249.987,665.177s.627,15.922,1.254,17.6,1.254,12.989,1.254,12.989l5.433,20.531-5.015,1.676s-6.9-12.151-7.731-13.617-7.522-24.93-7.522-24.93.627,14.455.627,19.274-1.254,22.416-1.254,22.416l-3.97-.419-5.224-22.206s-7.522-29.958-2.507-33.31S249.987,665.177,249.987,665.177Z" transform="translate(-215.503 -601.845)" fill="#2f2e41"/>
        <path id="Path_244" data-name="Path 244" d="M372.807,688.03s-.209,12.151,2.3,10.265,0-11.313,0-11.313Z" transform="translate(-368.829 -619.67)" fill="#ffc1c7"/>
        <path id="Path_245" data-name="Path 245" d="M225.093,670.187s-.209,12.151,2.3,10.265,0-11.313,0-11.313Z" transform="translate(-186.43 -606.017)" fill="#ffc1c7"/>
        <path id="Path_246" data-name="Path 246" d="M220.283,508.99s4.179-4.818,7.731-4.19,22.985.419,22.985.419,6.478,8.17,4.806,9.846-7.1,31.424-7.1,31.424-14.418-1.885-19.432-1.885-7.1-.838-7.1-.838,6.687-13.408,3.552-19.483a124.612,124.612,0,0,0-7.731-12.57Z" transform="translate(-212.335 -480.225)" fill="url(#linear-gradient)"/>
        <path id="Path_247" data-name="Path 247" d="M350.288,529.072l-3.552,1.257a58.237,58.237,0,0,0-2.09,13.2c0,5.866-.209,8.8-1.045,10.894s-3.552,11.941-2.09,14.036a13.962,13.962,0,0,0,2.925,3.142l4.806-.419s.209-6.913,1.462-7.542,2.925-4.609,2.925-4.609,3.97-12.779,1.463-16.969S350.288,529.072,350.288,529.072Z" transform="translate(-341.088 -498.841)" fill="url(#linear-gradient)"/>
        <path id="Path_248" data-name="Path 248" d="M208.385,533.366s-2.089-9.218,1.881-8.8,9.4.628,10.865.628,9.821-1.048,11.074,4.4,2.925,12.151-.627,16.34c0,0-1.254,18.436-6.06,19.693s-17.552,2.724-22.149-3.352a15.659,15.659,0,0,1-2.716-12.779h2.09Z" transform="translate(-185.811 -495.383)" fill="url(#linear-gradient-3)"/>
        <path id="Path_249" data-name="Path 249" d="M339.177,595.7l-1.671-11.313.836,11.732Z" transform="translate(-323.499 -541.165)" fill="#3f3d56"/>
        <path id="Path_250" data-name="Path 250" d="M229.133,621.855s-3.552,1.676-10.865.629v3.142l10.865-.838Z" transform="translate(-185.455 -569.836)" opacity="0.1" style="isolation: isolate"/>
        <path id="Path_251" data-name="Path 251" d="M305.12,514.608l-5.433-2.933,4.6,3.98Z" transform="translate(-280.561 -485.529)" fill="#3f3d56"/>
        <path id="Path_252" data-name="Path 252" d="M236.848,488.271s-4.179,1.466-4.179,0,3.761-2.723,6.06-3.561,13.164-2.1,14.836-2.723,9.612-1.676,10.239.838.836,7.751-2.3,8.38-11.283-1.047-15.463-.628S236.848,488.271,236.848,488.271Z" transform="translate(-223.886 -462.23)" fill="url(#linear-gradient)"/>
        <path id="Path_253" data-name="Path 253" d="M226.613,521.557l-1.42-2.991-.252,3.619Z" transform="translate(-184.502 -490.802)" fill="#3f3d56"/>
        <ellipse id="Ellipse_45" data-name="Ellipse 45" cx="7.629" cy="8.887" rx="7.629" ry="8.887" transform="translate(18.969 0.675)" fill="#2f2e41"/>
        <ellipse id="Ellipse_46" data-name="Ellipse 46" cx="7.629" cy="4.837" rx="7.629" ry="4.837" transform="translate(17.622)" fill="#2f2e41"/>
        <ellipse id="Ellipse_47" data-name="Ellipse 47" cx="0.785" cy="1.35" rx="0.785" ry="1.35" transform="translate(18.52 10.799)" fill="#ffc1c7"/>
        <path id="Path_254" data-name="Path 254" d="M321.937,408.055a4.985,4.985,0,0,1-2-2.324,2.457,2.457,0,0,0-.04.736,2.77,2.77,0,0,1-.956-.289l.072.784a8.072,8.072,0,0,1-1.577-1.266,6.24,6.24,0,0,0,.552,3.343,6.675,6.675,0,0,0,1.542,1.888" transform="translate(-301.537 -404.435)" fill="#2f2e41"/>
        <path id="Path_255" data-name="Path 255" d="M236.848,488.271s-4.179,1.466-4.179,0,3.761-2.723,6.06-3.561,13.164-2.1,14.836-2.723,9.612-1.676,10.239.838.836,7.751-2.3,8.38-11.283-1.047-15.463-.628S236.848,488.271,236.848,488.271Z" transform="translate(-223.886 -462.23)" opacity="0.1" style="isolation: isolate"/>
      </g>
    </g>
    <g id="Group_57" data-name="Group 57">
      <ellipse id="Ellipse_50" data-name="Ellipse 50" cx="7.293" cy="5.689" rx="7.293" ry="5.689" transform="translate(24.579 1.363)" fill="#3f3d56"/>
      <circle id="Ellipse_51" data-name="Ellipse 51" cx="10.503" cy="10.503" r="10.503" transform="translate(35.956 15.803)" fill="#3f3d56"/>
      <rect id="Rectangle_23" data-name="Rectangle 23" width="10.503" height="13.42" transform="translate(39.165 51.542)" fill="#fbbebe"/>
      <rect id="Rectangle_24" data-name="Rectangle 24" width="3.209" height="6.419" transform="translate(53.753 47.749)" fill="#fbbebe"/>
      <path id="Path_275" data-name="Path 275" d="M8490.787,2170.76l-1.313,3.939s-.583,2.917,1.313,3.062a24.536,24.536,0,0,0,4.963-.438,4.2,4.2,0,0,0,0-2.479c-.439-1.167-1.751-4.376-1.751-4.376Z" transform="translate(-8450.235 -2053.941)" fill="#3c354c"/>
      <path id="Path_276" data-name="Path 276" d="M8546.278,2172.849s-2.041,5.106-.437,5.981,3.793.146,5.543.875,6.565-1.02,6.565-1.02.583-1.6-2.627-2.042c0,0-3.491-2.626-3.491-3.209s-2.041-.585-2.041-.585Z" transform="translate(-8495.81 -2055.885)" fill="#3c354c"/>
      <path id="Path_277" data-name="Path 277" d="M8475.693,1854.943s-11.961,2.479-13.418,1.75-2.917,9.926-2.917,9.926a51.567,51.567,0,0,0,1.456,15.024c2.044,8.606,0,12.837,0,12.837s.295,8.168,2.481,11.962a16.058,16.058,0,0,1,2.188,7.293s4.228.437,4.378-.584a19.461,19.461,0,0,1-1.459-7.876c.291-3.792-.876-11.088-.876-11.088s1.9-9.19,1.6-12.683,1.022-10.94,1.749-9.628a42.3,42.3,0,0,1,2.627,9.045c0,1.314.737,10.063,1.169,10.648s.289,2.334.143,3.209a53.329,53.329,0,0,0,.583,10.94c.729,3.5.148,7.439.293,8.023s4.377.145,4.522-.876c0,0,.584-6.272.876-7.147s.431-11.977.431-11.977.291-8.606.582-9.481.735-19.693-1.167-21.873-1.167-7.731-1.167-7.731Z" transform="translate(-8425.66 -1796.179)" fill="#3f3d56"/>
      <path id="Path_278" data-name="Path 278" d="M8487.324,1699.608a18.237,18.237,0,0,0-1.421,3.151,6.038,6.038,0,0,0-.14,3.411,8.381,8.381,0,0,0,.943,1.967,6.7,6.7,0,0,0,1.188,1.588,7.161,7.161,0,0,0,4.193,1.367,2.12,2.12,0,0,0,.77-.013,1.449,1.449,0,0,0,.553-.3,4.375,4.375,0,0,0,1.188-2.206,36.582,36.582,0,0,0,1.218-5.908,2.856,2.856,0,0,0,0-.956,4.82,4.82,0,0,0-.892-1.454,3.7,3.7,0,0,1-.633-1.912,1.562,1.562,0,0,0-.208-.954,1.31,1.31,0,0,0-.5-.3c-.869-.368-1.736-.736-2.608-1.088-.526-.217-1.47-.794-2.022-.367-.472.367-.243,1.22-.446,1.731A24.28,24.28,0,0,1,8487.324,1699.608Z" transform="translate(-8447.125 -1666.255)" fill="#fbbebe"/>
      <path id="Path_279" data-name="Path 279" d="M8487.324,1699.608a18.237,18.237,0,0,0-1.421,3.151,6.038,6.038,0,0,0-.14,3.411,8.381,8.381,0,0,0,.943,1.967,6.7,6.7,0,0,0,1.188,1.588,7.161,7.161,0,0,0,4.193,1.367,2.12,2.12,0,0,0,.77-.013,1.449,1.449,0,0,0,.553-.3,4.375,4.375,0,0,0,1.188-2.206,36.582,36.582,0,0,0,1.218-5.908,2.856,2.856,0,0,0,0-.956,4.82,4.82,0,0,0-.892-1.454,3.7,3.7,0,0,1-.633-1.912,1.562,1.562,0,0,0-.208-.954,1.31,1.31,0,0,0-.5-.3c-.869-.368-1.736-.736-2.608-1.088-.526-.217-1.47-.794-2.022-.367-.472.367-.243,1.22-.446,1.731A24.28,24.28,0,0,1,8487.324,1699.608Z" transform="translate(-8447.125 -1666.255)" opacity="0.1" style="isolation: isolate"/>
      <circle id="Ellipse_54" data-name="Ellipse 54" cx="5.106" cy="5.106" r="5.106" transform="translate(40.842 23.462)" fill="#fbbebe"/>
      <path id="Path_280" data-name="Path 280" d="M8490.482,1756.908a10.006,10.006,0,0,1-2.993.684,9.9,9.9,0,0,1-2.288-.245,29.147,29.147,0,0,1-4.556-1.3,4.874,4.874,0,0,0-.427,2.033,54.967,54.967,0,0,0,.5,6.316c.2,2.68,0,5.418.688,8.014a2.192,2.192,0,0,1,.493-1.2,2.722,2.722,0,0,1,.824-.607,6.58,6.58,0,0,1,4.519-.562,4.4,4.4,0,0,0,2.661.25,2.6,2.6,0,0,0,1.141-1.123,9.235,9.235,0,0,0,1-2.7,38.134,38.134,0,0,0,.691-7.446c.019-.667.306-2.651-.248-3.139-.386-.34-.5.145-.781.4A3.582,3.582,0,0,1,8490.482,1756.908Z" transform="translate(-8442.743 -1715.462)" fill="#f2f2f2"/>
      <path id="Path_281" data-name="Path 281" d="M8460.115,1713.559a1.1,1.1,0,0,0-1.218.042c-.374.226-.677.539-1.059.744-1.055.572-2.471.153-3.473.818-.943.627-1.1,1.917-1.177,3.046a48.475,48.475,0,0,1-1.032,8.545,6.858,6.858,0,0,0-.336,2.246,6.09,6.09,0,0,0,.308,1.268l.9,2.825a15.065,15.065,0,0,1,.888,4.022,14.756,14.756,0,0,1-.6,4,46.708,46.708,0,0,0-1.235,7.887,5.524,5.524,0,0,0,.274,2.606,4.534,4.534,0,0,0,1.9,1.947c.785.476,1.642.844,2.411,1.349,1.545,1.016,2.786,2.618,4.595,3.035a6.253,6.253,0,0,0,2.532-.052s-.473-21.454-1.787-24.518-2.479-16.337-2.479-16.774S8460.115,1713.559,8460.115,1713.559Z" transform="translate(-8419.562 -1680.879)" fill="#f09819"/>
      <path id="Path_282" data-name="Path 282" d="M8528.031,1718.118s6.9,0,7.926,3.647-2.919,9.628-2.919,9.628,1.6,11.815,2.332,12.982.44,3.492.44,3.492a9.668,9.668,0,0,1,.289,4.963,48.933,48.933,0,0,1-2.771,7.294s-2.917,0-3.646,1.75-.875-7.586-.875-7.586-2.626-17.066-2.479-18.086.875-9.482,1.166-11.817S8528.422,1718.993,8528.031,1718.118Z" transform="translate(-8480.38 -1684.736)" fill="#f09819"/>
      <path id="Path_283" data-name="Path 283" d="M8559.064,1730.818s3.354,1.02,3.354,2.187,1.029,7.439,1.029,9.481-.438,2.335,0,3.064-4.668.437-4.668.437l-.927-8.313Z" transform="translate(-8506.113 -1695.102)" fill="#f09819"/>
      <path id="Path_284" data-name="Path 284" d="M8453.926,1785.063s6.564.438,7.732-.439,6.127,1.167,6.563,2.334-7,1.313-8.167,1.313-6.711,1.751-6.711,1.751Z" transform="translate(-8420.814 -1738.844)" fill="#a0616a"/>
      <path id="Path_285" data-name="Path 285" d="M8374.42,2154.8s-3.061,7.72-1.471,8.639,18.355.264,18.355.264,2.792-1.728-.4-2.926a10.942,10.942,0,0,1-4.389-1.2,25.563,25.563,0,0,1-3.727-3.058s-.132-2.927-1.2-2.261a2.732,2.732,0,0,0-1.2,1.862Z" transform="translate(-8354.824 -2040.632)" fill="#3f3d56"/>
      <path id="Path_286" data-name="Path 286" d="M8374.42,2154.8s-3.061,7.72-1.471,8.639,18.355.264,18.355.264,2.792-1.728-.4-2.926a10.942,10.942,0,0,1-4.389-1.2,25.563,25.563,0,0,1-3.727-3.058s-.132-2.927-1.2-2.261a2.732,2.732,0,0,0-1.2,1.862Z" transform="translate(-8354.824 -2040.632)" opacity="0.1" style="isolation: isolate"/>
      <path id="Path_287" data-name="Path 287" d="M8347.92,2167.377s-3.354,8.455-1.6,9.48,20.129.292,20.129.292,3.065-1.9-.437-3.209a12.02,12.02,0,0,1-4.814-1.312,27.787,27.787,0,0,1-4.084-3.36s-.145-3.209-1.311-2.479a2.986,2.986,0,0,0-1.313,2.042Z" transform="translate(-8333.049 -2050.85)" fill="#3f3d56"/>
      <path id="Path_288" data-name="Path 288" d="M8397.819,1862.26l-2.043,18.381s-.734,8.753-2.916,10.648c0,0,0,2.772-.736,3.647l-1.022,11.524s1.46,4.227,1.315,4.963.582,3.062.438,3.354-7,0-7,0l1.458-23.485,4.521-32.673Z" transform="translate(-8365.729 -1799.412)" fill="#3c354c"/>
      <path id="Path_289" data-name="Path 289" d="M8397.819,1862.26l-2.043,18.381s-.734,8.753-2.916,10.648c0,0,0,2.772-.736,3.647l-1.022,11.524s1.46,4.227,1.315,4.963.582,3.062.438,3.354-7,0-7,0l1.458-23.485,4.521-32.673Z" transform="translate(-8365.729 -1799.412)" opacity="0.1" style="isolation: isolate"/>
      <path id="Path_290" data-name="Path 290" d="M8360.555,1858.377s-1.605,15.025-2.336,18.234a41.672,41.672,0,0,0-.874,6.418s-.145,4.669-1.461,5.981a3.948,3.948,0,0,0-1.165,2.913s-1.312,14.732-.583,16.484,1.459,3.209.736,4.375-8.754,1.167-8.754.292,0-1.6-.437-2.042,0-3.21,0-3.21-1.751-12.983-.146-16.774,2.334-14.153,2.334-14.153-1.167-11.815-2.626-13.712.292-8.606.292-8.606Z" transform="translate(-8332.11 -1796.114)" fill="#3c354c"/>
      <path id="Path_291" data-name="Path 291" d="M8408.783,1602.776a1.953,1.953,0,0,0,.944.8,28.242,28.242,0,0,1,5.7,4.582,6.7,6.7,0,0,1,.266-4.527,2.324,2.324,0,0,0,.337-1.522,1.964,1.964,0,0,0-.734-.886,23.153,23.153,0,0,0-2.255-1.539c-.553-.327-1.67-1.2-2.3-1.1a5.775,5.775,0,0,1-.422,2.389C8410.229,1601.172,8408.848,1602.923,8408.783,1602.776Z" transform="translate(-8384.445 -1587.17)" fill="#a0616a"/>
      <circle id="Ellipse_55" data-name="Ellipse 55" cx="5.981" cy="5.981" r="5.981" transform="translate(25.817 5.519)" fill="#a0616a"/>
      <path id="Path_292" data-name="Path 292" d="M8356.479,1628.767s1.021-5.106-1.9-6.856-6.271-3.792-6.271-3.792-1.022-.147-1.458,2.042c0,0-8.314,1.6-9.191,9.481s.584,19.4.584,19.4-1.312,10.065-2.917,15.462c0,0-1.314,1.167,4.521-.583s16.044,4.963,16.044,4.963,1.023-1.022,1.023-1.752,1.167-4.963,1.167-4.963,1.021-17.941,1.457-19.983S8357.792,1629.059,8356.479,1628.767Z" transform="translate(-8324.388 -1603.116)" fill="#3f3d56"/>
      <path id="Path_293" data-name="Path 293" d="M8360.953,1647.322s8.021-4.669,6.416-10.65-5.1-7.876-5.1-7.876-5.689-1.9-10.5,4.228l.294,2.772s5.251-10.648,10.939-3.939S8360.953,1647.322,8360.953,1647.322Z" transform="translate(-8337.904 -1611.605)" fill="#f09819"/>
      <path id="Path_294" data-name="Path 294" d="M8290.844,1654.316v23.918l-1.489,8.16-.7,3.8h-5.1l-7.146-2.627v-17.645s5.978-11.817,7.876-14S8290.844,1654.316,8290.844,1654.316Z" transform="translate(-8276.405 -1632.604)" fill="#f09819"/>
      <path id="Path_295" data-name="Path 295" d="M8289.319,1829.158l-.693,3.8h-5.106l-7.146-2.625Z" transform="translate(-8276.373 -1775.366)" opacity="0.1" style="isolation: isolate"/>
      <path id="Path_296" data-name="Path 296" d="M8345.412,1733.426l12.547-15.317-11.089,15.9-1.166.291Z" transform="translate(-8332.723 -1684.729)" fill="#f09819"/>
      <path id="Path_297" data-name="Path 297" d="M8412.645,1548.62a2.484,2.484,0,0,1,1.174-.312,2.218,2.218,0,0,0,1.16-.345c.563-.434.607-1.272,1.019-1.851a3.194,3.194,0,0,1,2.823-.9,3.127,3.127,0,0,0,1.838-.276,2.813,2.813,0,0,0,.974-1.631,2.193,2.193,0,0,0-.183-2.176c-.369-.378-.965-.454-1.381-.787a3.785,3.785,0,0,1-.841-1.4,3.8,3.8,0,0,0-1.222-1.531,4.623,4.623,0,0,0-2.737-.657,21.472,21.472,0,0,1-2.857.019,8.778,8.778,0,0,0-2.322-.239,3.324,3.324,0,0,0-2.287,1.759,9.8,9.8,0,0,0-.895,2.836l-.551,2.652a7.023,7.023,0,0,0-.211,2.5c.272,1.72,1.794,3.088,1.9,4.825a2.957,2.957,0,0,1,1.809-2.149.571.571,0,0,1,.366-.046c.15.05.239.2.334.327.25.333,1.035.836,1.471.6C8412.441,1549.622,8412.145,1548.96,8412.645,1548.62Z" transform="translate(-8382.255 -1536.503)" fill="#3f3d56"/>
      <path id="Path_299" data-name="Path 299" d="M8359.221,1743.985s-1.021,6.417,3.208,5.834c0,0,2.188-.292,2.481,0s11.085-1.6,12.542-3.209c0,0,1.752-.583,2.626.292s9.629,1.75,7-.876a13.334,13.334,0,0,0-6.71-3.209l-5.543.29s-2.917.876-4.667,0-6.714-.574-6.714-.574Z" transform="translate(-8343.904 -1704.622)" fill="#a0616a"/>
      <path id="Path_300" data-name="Path 300" d="M8363.088,1640.348s-6.565.735-6.565,10.211v12.105s3.647-1.6,4.376-1.459,3.647-1.9,3.647-1.9,3.354-7.874,3.061-10.061S8367.464,1640.638,8363.088,1640.348Z" transform="translate(-8341.79 -1621.26)" fill="#3f3d56"/>
      <path id="Path_301" data-name="Path 301" d="M8526.565,1768.109l-6.563,4.669,4.084.437,5.688-4.814Z" transform="translate(-8475.221 -1725.538)" fill="#3f3d56"/>
      <path id="Path_302" data-name="Path 302" d="M8545.152,1786.1s1.605,4.963-.582,6.418-5.834-5.106-5.834-5.106-3.941-4.667-1.314-5.689,3.7,3.428,3.7,3.428l3.446,2.99Z" transform="translate(-8488.701 -1736.524)" fill="#fbbebe"/>
      <ellipse id="Ellipse_58" data-name="Ellipse 58" cx="5.834" cy="3.72" rx="5.834" ry="3.72" transform="translate(40.625 21.054)" fill="#3f3d56"/>
      <circle id="Ellipse_59" data-name="Ellipse 59" cx="4.229" cy="4.229" r="4.229" transform="translate(43.25 11.575)" fill="#3f3d56"/>
      <ellipse id="Ellipse_60" data-name="Ellipse 60" cx="5.615" cy="2.917" rx="5.615" ry="2.917" transform="translate(26.183 4.865)" fill="#3f3d56"/>
      <ellipse id="Ellipse_61" data-name="Ellipse 61" cx="1.969" cy="4.887" rx="1.969" ry="4.887" transform="translate(24.579 3.403)" fill="#3f3d56"/>
    </g>
  </g>
</svg>
